<?xml version="1.0" encoding="utf-8"?>
<!-- Generator: Adobe Illustrator 14.0.0, SVG Export Plug-In . SVG Version: 6.00 Build 43363)  -->
<!DOCTYPE svg PUBLIC "-//W3C//DTD SVG 1.1//EN" "http://www.w3.org/Graphics/SVG/1.1/DTD/svg11.dtd">
<svg version="1.1"
	 id="svg2" xmlns:rdf="http://www.w3.org/1999/02/22-rdf-syntax-ns#" sodipodi:docname="United States WIP.svg" inkscape:version="0.46" xmlns:svg="http://www.w3.org/2000/svg" xmlns:sodipodi="http://sodipodi.sourceforge.net/DTD/sodipodi-0.dtd" xmlns:inkscape="http://www.inkscape.org/namespaces/inkscape" xmlns:dc="http://purl.org/dc/elements/1.1/" sodipodi:version="0.32" xmlns:cc="http://creativecommons.org/ns#" inkscape:output_extension="org.inkscape.output.svg.inkscape"
	 xmlns="http://www.w3.org/2000/svg" xmlns:xlink="http://www.w3.org/1999/xlink" x="0px" y="0px" width="2000px" height="1237px"
	 viewBox="-520.5 -322 2000 1237" enable-background="new -520.5 -322 2000 1237" xml:space="preserve">
<defs>
	
	
		<inkscape:perspective  id="perspective64" inkscape:persp3d-origin="479.5 : 197.66667 : 1" inkscape:vp_z="959 : 296.5 : 1" inkscape:vp_y="0 : 1000 : 0" inkscape:vp_x="0 : 296.5 : 1" sodipodi:type="inkscape:persp3d">
		</inkscape:perspective>
</defs>
<sodipodi:namedview  id="base" inkscape:guide-bbox="true" showguides="true" inkscape:current-layer="svg2" inkscape:window-y="-8" inkscape:window-x="-8" inkscape:cy="298.13957" inkscape:cx="608.50443" inkscape:zoom="0.70710678" showgrid="false" pagecolor="#ffffff" bordercolor="#666666" borderopacity="1.0" objecttolerance="10.0" gridtolerance="10.0" guidetolerance="10.0" inkscape:pageopacity="0.0" inkscape:pageshadow="2" inkscape:window-width="1152" inkscape:window-height="814">
	</sodipodi:namedview>
<path id="HI" fill="#0B0B0B" stroke="#FFFFFF" stroke-width="0.75" d="M-2.898,751.841l4.009-7.351l4.677-0.668l0.669,1.671
	l-4.344,6.348H-2.898z M18.15,744.155l12.697,5.347l4.343-0.668l3.34-8.019l-1.336-7.016l-8.687-1.004l-8.353,3.676L18.15,744.155z
	 M81.632,764.871l7.685,11.359l5.011-0.669l2.339-1.001l3.006,2.673l7.685-0.335l2.005-3.006l-6.015-3.675l-4.009-7.686
	l-4.344-7.351l-12.028,6.014L81.632,764.871z M123.396,783.248l2.673-4.011l9.689,2.004l1.337-1.001l12.696,1.336l-0.668,2.673
	l-5.347,3.007l-9.021-0.668L123.396,783.248z M134.421,793.938l4.009,8.019l6.349-2.339l0.668-3.341l-3.341-4.343l-7.685-0.668
	V793.938z M148.788,791.6l4.678-6.013l9.689,5.012l9.021,2.337l9.022,5.682v4.008l-7.351,3.676l-10.024,2.004l-5.011-3.005
	L148.788,791.6z M183.201,823.674l3.342-2.672l7.017,3.34l15.702,7.351l7.017,4.344l3.341,5.012l4.009,9.021l8.353,5.347
	l-0.668,2.672l-8.019,6.683l-8.687,3.008l-3.007-1.337l-6.349,3.674l-5.012,6.683l-4.677,6.015l-3.675-0.335l-7.351-5.345
	l-0.668-9.354l1.336-5.012l-3.34-11.694l-4.343-3.675l-0.335-5.347l4.678-2.004l4.343-6.35l1.002-2.005l-3.341-3.675
	L183.201,823.674z"/>
<path id="AK" fill="#020202" stroke="#FFFFFF" stroke-width="0.75" d="M-157.926,616.191l-0.668,176.411l3.341,2.004l6.348,0.335
	l3.007-2.339h5.345l0.334,6.015l14.368,14.031l1.002,5.347l7.017-4.009l1.336-0.335l0.668-6.348l3.007-3.342l2.339-0.334
	l4.009-3.007l6.348,4.344l1.337,6.015l4.01,2.337l2.338,5.014l8.019,3.673l7.017,12.364l5.68,8.019l4.677,5.68l3.007,7.684
	l10.358,3.675l10.691,4.344l2.005,9.021l1.002,6.348l-2.004,7.016l-3.675,4.679l-3.342-1.671l-3.007-6.348l-5.68-3.008l-3.675-2.339
	l-1.671,1.671l3.007,5.68l0.334,7.686l-2.338,1.001l-4.009-4.008l-4.344-2.673l1.002,3.341l2.672,3.675l-1.67,1.672
	c0,0-1.67-0.671-2.673-2.007c-1.002-1.336-4.343-7.016-4.343-7.016l-2.004-4.678c0,0-0.668,2.674-2.005,2.006
	c-1.336-0.668-2.672-3.008-2.672-3.008l3.675-4.01l-3.007-3.008v-10.355h-1.67l-1.671,7.016l-2.339,1.003l-2.004-7.686l-1.336-7.684
	l-1.671-1.003l0.668,11.693v2.34l-3.006-2.673l-7.351-12.363l-4.344-1.001l-1.337-7.687l-3.34-6.012l-3.341-2.34v-4.678l4.343-2.673
	l-1.002-0.668l-5.347,1.336l-7.016-5.011l-5.346-6.015l-10.023-5.345l-8.353-5.347l2.672-6.683v-3.34l-3.674,3.34l-6.014,2.34
	l-7.685-2.34l-11.694-5.011h-11.359l-1.337,1.003l-13.364-8.019l-4.344-0.669l-5.68-12.028l-7.35,0.668l-7.351,3.007l1.002,9.355
	l2.339-6.015l2.004,0.67l-3.007,9.02l6.683-5.68l1.336,3.341l-8.019,9.021l-2.672-0.668l-1.003-4.011l-2.672-1.669l-2.673,2.337
	l-5.68-3.675l-6.349,4.344l-3.675,4.343l-7.016,4.346l-9.689-0.335l-1.002-4.344l7.685-1.336v-2.674l-4.678-1.337l2.004-5.011
	l4.677-8.019v-3.676l0.334-1.669l9.022-4.679l2.004,2.672h5.681l-2.673-5.344l-7.685-0.668l-10.358,5.679l-5.011,7.016l-3.676,5.347
	l-2.338,4.677l-8.687,3.007l-6.349,5.347l-0.668,3.341l4.677,2.006l1.67,4.343l-5.679,6.681l-13.364,8.689l-16.038,8.687
	l-4.343,2.337l-11.026,2.34l-11.026,4.678l3.675,2.673l-3.007,3.007l-1.002,2.339l-5.68-2.006l-6.683,0.335l-1.67,4.679h-2.005
	l0.668-5.014l-7.35,2.674l-6.014,2.005l-7.017-2.673l-6.014,4.009h-6.683l-4.344,2.672l-3.341,1.672l-4.344-0.669l-5.345-2.339
	l-4.677,1.336l-2.005,2.007l-3.34-2.34v-4.01l6.348-2.673l13.03,1.336l9.021-3.34l4.344-4.344l6.013-1.336l3.675-1.671l5.68,0.335
	l3.341,2.672l2.005-0.668l4.677-5.68l6.348-2.006l7.017-1.336l2.673-0.668l1.336,1.003h1.671l2.672-7.686l8.353-3.007l4.009-7.685
	l4.678-9.354l3.341-3.007l0.668-5.347l-3.34,2.674l-7.017,1.336l-1.336-5.011l-2.673-0.668l-2.005,2.004l-0.334,6.015l-3.006-0.335
	l-3.007-12.027l-2.673,2.672l-2.338-1.003l-0.669-4.008l-8.353,0.333l-4.343,2.339l-5.345-0.668l3.007-3.007l1.002-5.345
	l-1.336-4.011l3.006-2.004l2.673-0.335l-1.336-3.676v-9.02l-2.005-2.006l-1.67,3.007h-12.696l-3.007-2.672l-1.336-8.019
	l-4.344-7.351v-2.005l4.344-1.671l0.334-4.343l2.338-2.34l-1.67-1.001l-2.673,1.001l-2.338-5.68l2.004-10.357l9.355-6.683
	l5.346-3.341l4.009-7.684l5.68-2.674l5.346,2.339l0.669,5.012l5.011-0.668l6.682-5.012l3.341,1.336l2.005,1.337h3.342l4.677-2.673
	l1.67-9.021c0,0,0.668-6.013,2.005-7.016c1.336-1.003,2.004-2.004,2.004-2.004l-2.338-4.011l-5.347,1.671l-6.682,1.672l-4.009-1.004
	l-7.351-3.675l-10.358-0.333l-7.351-7.686l1.003-8.019l1.336-5.012l-4.343-3.676l-4.01-7.684l1.002-1.671l14.033-1.003h4.343
	l2.004,2.006h1.337l-0.335-3.342l8.019-1.336l5.346,0.668l3.008,2.339l-3.008,4.344l-1.002,3.007l5.68,3.34l10.357,3.676
	l3.675-2.004l-4.678-9.022l-2.004-6.683l2.004-1.669l-7.017-4.01l-1.002-2.34l1.002-3.34l-1.67-8.019l-6.014-9.69l-5.012-8.687
	l6.015-4.008h6.681l3.676,1.336l8.688-0.335l7.684-7.349l2.339-6.35l7.685-5.012l3.341,2.004l5.68-1.336l7.685-4.343l2.339-0.333
	l2.004,1.669l9.355-0.333l5.681-6.348h2.338l7.351,5.012l4.009,4.343l-1.002,2.337l1.336,2.34l3.341-3.341l8.019,0.668l0.668,7.685
	l4.009,3.007l14.701,1.336l13.03,8.687l3.007-2.004l10.691,5.347l4.343-1.336l4.009-1.672l10.024,4.009L-157.926,616.191z
	 M-395.812,675.997l4.343,11.026l-0.334,2.004l-6.015-0.668l-3.675-8.352l-3.675-3.007h-5.011l-0.334-5.347l3.675-5.012l2.338,5.012
	l3.007,3.007L-395.812,675.997z M-401.159,745.158l7.685,1.671l7.685,2.005l1.67,2.004l-3.34,7.686l-6.349-0.335l-7.017-7.351
	L-401.159,745.158z M-443.925,716.091l2.338,5.347l2.339,3.34l-2.339,1.671l-4.343-6.349v-4.009H-443.925z M-472.324,867.11
	l7.016-4.679l7.017-2.004l5.347,0.668l1.002,3.34l4.009,1.003l4.009-4.01l-0.668-3.341l5.68-1.336l6.013,5.345l-2.338,3.675
	l-9.021,2.34l-5.681-1.001l-7.685-2.34l-9.021,3.008l-3.341,0.668L-472.324,867.11z M-371.088,857.753l3.34,4.011l4.344-3.343
	l-3.007-2.672L-371.088,857.753z M-365.075,864.103l2.339-4.679l4.343,0.669l-1.671,4.01H-365.075z M-316.295,860.093l3.007,3.675
	l2.004-2.339l-1.67-4.009L-316.295,860.093z M-298.252,834.367l2.338,12.027l6.015,1.671l10.357-6.015l9.021-5.347l-3.341-5.012
	l1.002-5.011l-4.343,2.672l-6.015-1.669l3.341-2.339l4.009,1.671l8.019-3.676l1.002-3.007l-5.011-1.671l1.67-4.009l-5.68,4.009
	l-9.689,7.351l-10.024,6.015L-298.252,834.367z M-210.716,793.271l5.012-3.007l-2.004-3.676l-3.675,2.004L-210.716,793.271z"/>
<path id="FL" sodipodi:nodetypes="cccccccccccccccccccccccccccccccccccccccccccccccccccccccccccccccccccccccccccccccccccccccccccccccccccccccccccccccccccccccccccccccccccccccccccccc" fill="#090909" stroke="#FFFFFF" stroke-width="0.75" d="
	M1085.711,586.157l4.683,15.125l7.71,20.137l11.023,19.377l7.686,13.03l10.023,11.359l8.352,7.686l3.343,6.013l-2.34,2.674
	l-1.671,2.673l6.015,15.369l6.015,6.015l5.346,11.025l7.35,12.027l9.356,17.04l2.672,15.702l1.003,24.725l1.336,3.676l-0.668,7.016
	l-5.013,2.674l0.67,4.008l-1.338,4.009l0.668,5.014l1.003,4.008l-5.68,6.683l-6.348,3.008l-8.019,0.333l-3.007,3.342l-5.012,2.005
	l-2.674-1.004l-2.338-2.004l-0.67-6.015l-1.669-7.016l-7.018-10.69l-7.349-4.679l-8.019-0.668l-1.672,2.672l-6.347-9.02
	l-1.339-7.351l-5.344-8.354l-3.676-2.338l-3.34,4.344l-3.676-0.668l-4.346-10.357l-6.012-8.02l-6.015-11.025l-5.347-6.348
	l-7.349-7.686l4.344-5.012l6.68-11.358l-0.332-3.343l-9.355-2.004l-3.342,1.336l0.668,1.338l5.346,2.004l-3.007,9.355l-1.671,1.003
	l-3.676-8.354l-2.672-10.023l-0.668-5.679l3.007-9.69v-19.713l-6.348-7.684l-2.674-6.35l-10.69-2.672l-4.009-1.336l-3.343-5.347
	l-7.016-3.34l-2.339-7.018l-5.68-2.005l-5.011-7.684l-8.688-3.007l-6.014-3.008h-5.347l-8.352,1.672l-0.335,4.008l1.671,2.006
	l-1.003,2.338l-6.348-0.333l-7.684,7.351l-7.351,4.008h-8.02l-6.683,2.673l-0.668-5.68l-3.34-4.009l-6.015-2.339l-3.343-3.007
	l-16.705-8.02l-15.702-3.675l-9.021,1.336l-12.362,1.003l-12.362,4.344l-7.189,1.268l-0.492-16.637l-5.347-4.011l-3.673-3.675
	l0.668-6.348l21.049-2.673l52.788-6.015l14.033-1.336l11.234,0.579l5.347,8.019l3.007,3.008l16.736,1.063l22.362-1.336l44.459-2.672
	l11.256-1.396l10.556,0.424l0.882,6.013l4.616,1.671l0.484-9.568l-3.158-8.624l2.704-2.978l11.48,0.941L1085.711,586.157z
	 M1111.64,859.804l5.012-1.336l2.673-0.501l3.007-4.846l4.844-3.34l2.675,1.001l3.508,0.668l0.835,2.172l-7.183,2.506l-8.688,3.008
	l-4.846,2.507L1111.64,859.804z M1139.539,849.445l2.505,2.172l5.679-4.343l11.026-8.688l7.686-8.019l5.177-13.698l2.007-3.508
	l0.333-7.018l-1.504,1.004l-2.004,5.847l-3.008,9.522l-6.683,10.858l-9.02,8.687l-7.018,4.011L1139.539,849.445z"/>
<path id="NH" sodipodi:nodetypes="ccccccccccccccccccccccccccccccccc" fill="#1D1D1D" stroke="#FFFFFF" stroke-width="0.75" d="
	M1335.75-27.08l1.796-2.226l2.253-6.801l-5.256-1.888l-1.001-6.348l-8.019-2.339l-0.668-5.679l-15.037-48.446l-9.51-30.057
	l-1.854-0.01l-1.336,3.341l-1.336-1.003l-2.006-2.004l-3.008,4.009l-0.099,10.399l0.644,11.713l4.009,5.68v8.353l-7.684,10.464
	l-5.347,2.338v2.339l2.34,3.676v17.707l-1.672,19.045l-0.333,10.023l2.005,2.673l-0.334,9.354l-1.003,3.675l2.003,1.466
	l34.696-9.145l4.494-1.246l3.809-5.731L1335.75-27.08z"/>
<g id="MI">
	
		<path id="MI-" sodipodi:nodetypes="cccccccccccsccccccccccccccccccccccccccccccccccccccccccccccccccccccccccccccccccccccccccccccccccccc" fill="#161616" stroke="#FFFFFF" stroke-width="0.75" d="
		M957.664,44.867l-6.683-17.04l-4.679-18.709l-5.011-6.683l-5.345-3.676l-3.342,2.339l-8.02,3.675l-4.008,10.357l-5.68,7.685
		l-2.339,1.336l-3.008-1.336c0,0-5.347-3.007-5.011-4.343c0.333-1.336,1.001-10.358,1.001-10.358l7.018-2.672l1.669-7.017
		l1.338-5.345l5.012-3.341l-0.668-20.715l-3.343-4.677l-2.672-1.671l-1.671-4.343l1.671-1.67l3.34,0.668l0.335-3.341l-5.011-4.678
		l-2.675-5.345h-5.344l-9.355-3.007l-11.36-7.017h-5.68l-1.336,1.337l-2.005-1.003l-6.35-4.677l-6.012,3.675l-6.015,4.677
		l0.668,7.351l2.004,0.668l4.344,1.002l1.003,1.671l-5.347,1.67l-5.345,0.669l-3.007,3.674L850.081-41l0.668,3.341l0.668,11.36
		l-7.351,4.343l-1.336-0.334v-8.687l2.672-5.012L846.738-41l-1.669-1.67L841.06-41l-2.005,8.688l-5.68,2.338l-3.675,4.01
		l-0.335,2.004l1.336,1.671l-1.336,5.346l-4.677,1.002v2.339l1.669,5.011l-2.337,12.696l-3.342,8.353l1.336,9.69l1.003,2.338
		l-1.671,5.011l-0.668,1.671l-0.668,5.679l7.351,12.362l6.014,13.364l3.008,10.024l-1.671,9.688l-2.005,12.362l-5.011,10.692
		l-0.67,5.679l-6.735,6.377l9.112-0.335l44.266-4.679l15.042-2.039l0.2,3.444l14.16-2.505l21.283-3.107l7.966-0.953l0.285-1.214
		l0.335-3.007l4.343-7.685l4.134-3.592l-0.458-10.44l3.3-3.301l2.254-0.708l0.459-7.351l3.175-6.265l2.171,1.253l0.335,1.336
		l1.67,0.334l4.01-2.004L957.664,44.867z"/>
	
		<path id="SP-" inkscape:label="#SP-" sodipodi:nodetypes="ccccccccccccccsccccccccccccccccccccccccccccccccccccccccccccccccccccccccccccccccccccccccccccccccccccccccccccccc" fill="#161616" stroke="#FFFFFF" stroke-width="0.75" d="
		M717.425-151.84l3.78-4.252l4.488-1.654l11.104-8.033l4.725-1.181l0.945,0.945l-10.631,10.631l-6.852,4.016l-4.253,1.89
		L717.425-151.84z M895.525-85.44l1.336,5.179l6.683,0.334l2.672-2.506c0,0-0.167-3.007-0.836-3.341
		c-0.668-0.334-3.34-3.842-3.34-3.842l-4.511,0.5l-3.341,0.334l-0.668,2.339L895.525-85.44z M688.228-91.586l1.479-1.2l5.682-1.671
		l7.349-4.678v-2.004l1.338-1.336l12.362-2.005l5.012-4.009l9.02-4.343l0.335-2.673l4.009-6.014l3.675-1.67l2.674-3.675l4.677-4.679
		l9.021-5.011l9.688-1.002l2.339,2.339l-0.668,2.004l-7.684,2.005l-3.008,6.347l-4.678,1.671l-1.001,5.011l-5.012,6.682l-0.67,5.347
		l1.671,1.002l2.004-2.339l7.351-6.014l2.675,2.673h4.676l6.683,2.004l3.008,2.339l3.007,6.348l5.68,5.68l8.019-0.334l3.008-2.004
		l3.34,2.673l3.343,1.002l2.672-1.671h2.339l3.341-2.004l8.354-7.351l7.016-2.338l13.698-0.668l9.354-4.01l5.347-2.672l3.007,0.334
		v11.694l1.002,0.668l6.014,1.67l4.009-1.002l12.697-3.341l2.339-2.338l3.008,1.002v14.366l6.68,6.349l2.675,1.336l2.672,2.005
		l-2.672,0.668l-1.671-0.668l-7.684-1.003l-4.344,1.337l-4.679-0.334l-6.683,3.007h-3.675l-12.027-2.673l-10.69,0.334l-4.011,5.346
		l-14.366,1.337l-5.012,1.67l-2.339,6.348l-2.673,2.339l-1.003-0.334l-3.007-3.341l-9.354,5.011h-1.337l-2.339-3.341l-1.671,0.335
		l-4.009,9.021l-2.004,8.353l-6.575,14.468l-2.433-2.137l-2.833-2.131l-4.013-21.263l-7.324-2.832l-4.243-4.725l-25.049-5.669
		l-5.901-2.128l-17.011-4.491l-16.308-2.362L688.228-91.586z"/>
</g>
<path id="VT" sodipodi:nodetypes="ccccccccccccccccccccccccccccc" fill="#2D2D2D" stroke="#FFFFFF" stroke-width="0.75" d="
	M1260.697-3.037l0.654-11.048l-5.975-22.288l-1.336-0.668l-6.015-2.673l1.671-6.015l-1.671-4.343l-5.58-9.589l2.004-8.019
	l-1.669-10.692l-5.012-13.364l-1.665-10.173l54.601-13.913l0.638,11.413l3.962,5.667v8.353l-7.663,10.454l-5.345,2.361l-0.023,2.316
	l2.708,3.14l-0.642,16.736l-1.262,19.135l-0.471,11.485l2.005,2.673l-0.333,9.445l-1.003,3.493l2.097,1.503l-15.371,3.114
	L1260.697-3.037z"/>
<path id="ME" sodipodi:nodetypes="ccccccccsccccccccccccccccccccccccccccccccccccccccccccccccccccccccccccccccccccccccccccccccsccccc" fill="#131313" stroke="#FFFFFF" stroke-width="0.75" d="
	M1422.638-158.513l4.008,4.343l4.679,7.685v4.009l-4.344,9.689l-4.01,1.337l-7.016,6.347l-10.023,11.36c0,0-1.336,0-2.672,0
	c-1.338,0-2.006-4.343-2.006-4.343l-3.676,0.334l-2.004,3.007l-5.012,3.007l-2.004,3.006l3.34,3.007l-1.001,1.336l-1.003,5.681
	l-4.01-0.334v-3.341l-0.669-2.673l-3.005,0.668l-3.676-6.682l-4.343,2.672l2.672,3.007l0.668,2.339l-1.671,2.672l0.668,6.349
	l0.335,3.341l-3.34,5.346l-6.015,1.002l-0.668,6.015l-11.026,6.347l-2.672,1.002l-3.343-3.006l-6.348,7.35l2.005,6.683l-3.008,2.673
	l-0.333,9.021l-2.322,12.937l-5.089-2.389l-1.003-6.349l-8.017-2.338l-0.67-5.681l-15.034-48.446l-9.71-30.256l2.935-0.244
	l3.128,0.848v-5.347l2.704-9.292l5.347-9.69l3.008-8.353l-4.011-5.012v-12.362l1.671-2.004l1.672-5.68l-0.335-3.007l-0.334-10.023
	l3.676-10.023l6.013-18.376l4.343-8.687h2.675l2.672,0.334v2.339l2.673,4.678l5.68,1.336l1.671-1.67v-2.005l8.354-6.014l3.675-3.675
	l3.006,0.334l12.361,5.012l4.011,2.005l18.71,61.811h12.361l1.672,4.009l0.333,10.023l6.015,4.677h1.671l0.333-1.002l-1.001-2.339
	L1422.638-158.513z M1379.377-96.206l3.173-3.174l2.842,2.172l1.169,5.012l-3.508,1.837L1379.377-96.206z M1393.243-108.4
	l3.675,3.842c0,0,2.673,0.167,2.673-0.5c0-0.668,0.5-4.177,0.5-4.177l1.839-1.67l-1.671-3.675l-4.176,1.503L1393.243-108.4z"/>
<path id="RI" sodipodi:nodetypes="ccccccccccc" fill="#272727" stroke="#FFFFFF" stroke-width="0.75" d="M1321.844,48.295
	l-7.64-30.91l12.958-3.813l4.529,3.983l6.831,8.929l5.557,9.099l-6.198,3.358l-2.674-0.335l-2.34,3.675l-5.011,4.01L1321.844,48.295
	z"/>
<path id="NY" fill="#202020" stroke="#FFFFFF" stroke-width="0.75" d="M1231.547,68.652l-2.339-2.005l-5.347-0.334l-4.676-4.009
	l-3.371-12.667l-7.148,0.187l-5.05-5.597l-40.065,9.056l-88.872,18.042l-15.562,2.538l-1.526-13.369l2.953-2.325l2.672-2.339
	l2.004-3.341l3.676-2.338l4.011-3.675l1.001-3.341l4.343-5.68l2.34-2.005l-0.333-2.004l-2.675-6.349l-3.675-0.334l-4.009-12.696
	l6.015-3.675l9.02-3.007l8.354-2.672l6.684-1.003l13.029-0.334l4.009,2.673l3.34,0.334l4.344-2.673l5.347-2.338l10.69-1.002
	l4.344-3.675l3.675-6.683l3.343-4.009h4.343l4.009-2.338l0.335-4.678l-3.007-4.343l-0.668-3.006l2.339-4.343v-3.008h-3.676
	l-3.675-1.67l-1.671-2.339l-0.333-5.346l12.026-11.36l1.336-1.67l3.008-6.015l6.015-9.354l5.68-7.685l4.343-5.012l4.991-3.773
	l6.368-2.576l11.361-2.672l6.682,0.334l9.355-3.007l15.634-4.281l1.075,10.292l5.012,13.364l1.669,10.691l-2.004,8.019l5.347,9.355
	l1.671,4.344l-1.671,6.013l6.014,2.673l1.337,0.668l6.347,22.72l-1.107,10.457l-1.003,22.385l1.671,11.36l1.671,7.351l3.006,15.034
	v16.706l-2.338,4.678l3.801,4.118l1.647,3.469l-4.011,3.675l0.67,2.673l2.672-0.668l3.008-2.673l4.677-5.346l2.339-1.337l3.34,1.337
	l4.679,0.334l16.37-8.019l6.015-5.679l2.672-3.008l8.689,3.342l-7.018,7.35l-8.02,6.014l-14.701,11.026l-5.344,2.004l-12.029,4.009
	l-8.352,2.338l-2.428-1.101l-0.505-7.623l1.003-5.68l-0.335-4.344l-5.814-3.511l-9.355-2.005l-8.019-2.338L1231.547,68.652z"/>
<path id="PA" sodipodi:nodetypes="cccccccccccccccccccccccccccccccccccccccccccc" fill="#262626" stroke="#FFFFFF" stroke-width="0.75" d="
	M1220.685,142.944l2.702-0.561l4.816-2.589l2.504-5.132l3.341-4.678l6.683-6.347v-1.671l-5.012-3.341l-7.351-5.011l-2.004-5.346
	l-5.68-0.668l-0.335-2.339l-1.671-5.68l4.678-2.339l0.335-5.011l-2.674-2.673l0.335-3.34l4.009-6.349V73.52l5.576-5.467
	l-1.903-1.396l-5.215-0.398l-4.743-4.009l-3.203-12.64l-7.244,0.208l-5.073-5.588l-37.39,8.676l-88.873,18.042l-18.377,3.007
	l-1.281-13.478l-11.083,10.474l-2.674,1.002l-8.685,6.218l6.017,39.553l5.128,20.108l7.381,39.808l6.758-1.318l24.684-3.105
	l78.385-15.841l30.746-5.835l17.154-3.354l0.553-0.493l4.343-3.341L1220.685,142.944z"/>
<path id="NJ" sodipodi:nodetypes="ccccccccccccccccccccccccccccccccccccccccccccccccccc" fill="#1E1E1E" stroke="#FFFFFF" stroke-width="0.75" d="
	M1230.1,68.062l-4.801,5.651v6.349l-4.009,6.348l-0.335,3.341l2.674,2.673l-0.335,5.012l-4.676,2.339l1.669,5.68l0.335,2.338
	l5.68,0.669l2.004,5.345l7.351,5.012l5.012,3.341v1.67l-6.164,5.573l-3.342,4.677l-3.008,5.68l-4.677,2.673l-0.956,3.312
	l-0.501,2.505l-1.259,5.388l2.256,4.638l6.683,6.013l10.022,4.677l8.354,1.337l0.333,3.006l-1.669,2.005l0.668,5.68h1.671
	l4.344-5.012l1.669-10.022l5.679-8.353l6.35-13.365l2.34-11.359l-1.338-2.339l-0.333-19.379l-3.343-7.016l-2.337,1.67l-5.682,0.668
	l-1.001-1.002l2.339-2.004l4.344-4.009l0.129-2.262l-0.793-7.096l1.185-5.68l-0.244-4.07l-5.803-3.618l-10.523-2.43l-8.552-2.855
	L1230.1,68.062z"/>
<path id="DE" sodipodi:nodetypes="cccccccccccccccccccc" fill="#080808" stroke="#FFFFFF" stroke-width="0.75" d="M1221.722,150.358
	l0.761-4.438l0.775-3.495l-3.354,0.822l-3.338,0.967l-4.56,3.646l3.555,10.423l4.678,11.694l4.344,20.047l3.34,13.03l10.358-0.334
	l12.695-2.44l-4.681-15.265l-2.004,1.002l-7.352-5.013l-3.675-9.688l-4.009-7.351l-6.505-5.932l-1.786-4.336L1221.722,150.358z"/>
<path id="MD" sodipodi:nodetypes="ccccccccccccccccccccccccccccccccccccccccccccccccccsccccccccccccccccccccccccccccsccc" fill="#141414" stroke="#FFFFFF" stroke-width="0.75" d="
	M1250.999,200.239l-12.418,2.489l-10.629,0.242l-3.811-14.307l-3.978-18.95l-5.318-12.79l-2.662-9.09l-15.513,3.353l-30.745,5.835
	l-77.401,15.605l2.337,10.358l2.005,11.694l0.668-0.668l4.343-5.012l4.679-5.41l5.012-1.271l3.007-3.007l3.676-5.345l2.672,1.336
	l6.015-0.668l5.345-4.343l4.149-3.003l3.812-1.003l3.398,2.335l6.015,3.007l4.009,3.675l2.507,3.174l8.519,3.509v6.014l11.359,2.673
	l2.365,1.12l2.919-4.192l5.955,4.072l-2.642,5.129l-1.58,8.237l-3.676,5.346v4.343l1.337,3.676l10.465,2.801l8.91-0.127l6.348,2.004
	l4.344,0.668l2.004-4.343l-3.005-4.344v-3.675l-5.012-4.344l-4.344-11.36l2.673-11.025l-0.335-4.343l-2.673-2.673
	c0,0,3.008-3.341,3.008-4.678c0-1.336,1.001-4.343,1.001-4.343l4.01-2.674l4.009-3.341l1.003,2.005l-3.007,3.341l-2.673,7.685
	l0.668,2.338l3.676,0.668l1.001,11.36l-4.344,2.005l0.67,7.35l1.002-0.334l2.339-4.009l3.341,3.675l-3.341,2.673l-0.668,7.016
	l5.345,7.017l8.021,1.002l3.34-1.67l6.688,8.646l2.808,1.108l13.751-5.781l4.149-8.316L1250.999,200.239z M1217.994,218.899
	l2.34,5.179l0.332,3.675l2.34,3.842c0,0,1.839-1.838,1.839-2.506s-1.504-6.348-1.504-6.348l-1.504-4.845L1217.994,218.899z"/>
<path id="VA" sodipodi:nodetypes="ccccccccccccccccccccccccccccccccccccccccccccccccccccccccccccccccccccccccccccccccccc" fill="#2E2E2E" stroke="#FFFFFF" stroke-width="0.75" d="
	M1234.148,228.459l-0.297-4.023l13.337-5.27l-1.592,6.65l-6.035,7.81l-0.863,9.478l0.954,7.007l-3.778,10.289l-4.473,3.96
	l-3.039-9.591l0.922-11.262l3.28-8.646L1234.148,228.459z M1241.053,286.951l-120.231,25.99l-77.352,10.91l-13.803-0.774
	l-5.343,3.981l-15.167,0.457l-17.325,2.02l-22.557,3.337l21.637-11.598l-0.026-4.289l3.14-4.434l21.812-23.771l8.157,9.253
	l7.819,1.994l5.256-2.357l4.624-2.711l5.243,2.777l8.09-2.951l3.877-9.417l5.377,1.116l5.901-4.404l3.718,1.02l5.843-7.598
	l0.721-4.305l-1.992-2.637l2.072-3.858l10.901-25.373l1.273-11.854l2.541-1.082l4.501,5.049l8.136-0.623l3.985-15.652l5.774-1.16
	l2.17-5.666l5.332-4.85l5.729-11.771l0.176-10.473l20.3,7.901c1.406,0.704,1.72-10.436,1.72-10.436l7.55,3.303l0.142,6.073
	l11.954,2.685l4.408,2.431l3.431,4.249l-1.354,7.542l-4.024,5.354l0.228,4.255l1.217,3.83l10.29,2.621l9.199,0.083l6.344,1.981
	l4.016,0.64l1.478,6.383l6.594,0.832l1.795,2.48l-0.908,9.693l2.84,2.279l-0.989,3.99l2.541,1.632l-0.458,2.862l-5.568-0.197
	l0.184,3.339l4.715,3.188l0.25,2.918l3.665,3.69l1.015,5.216l-5.275,2.855l3.25,3.088l11.988-3.484L1241.053,286.951z"/>
<path id="WV" sodipodi:nodetypes="ccccccccccccccccccccccccccccccccccccccccscccccccccccccccccccccccccccccccccccccccccc" fill="#303030" stroke="#FFFFFF" stroke-width="0.75" d="
	M1088.541,172.447l2.299,10.219l2.238,12.466l4.403-5.333l4.677-6.349l5.245-1.271l3.008-3.007l3.675-5.345l2.987,1.336l6.015-0.668
	l5.345-4.344l4.147-3.003l3.814-1.003l2.694,2.101l7.53,3.766l4.009,3.675l2.839,2.672l-1.574,11.481l-12.059-5.253l-8.773-3.351
	l-0.208,10.702l-5.68,11.442l-5.229,5.016l-2.462,5.683l-5.464,1.033l-1.857,7.444l-2.155,8.163l-8.202,0.703l-4.802-5.04
	l-2.214,1.156l-1.308,11.304l-2.789,7.305l-10.249,22.642l1.853,2.398l-0.424,3.944l-5.807,8.029l-3.736-1.125l-6.135,4.463
	l-5.254-1.183l-4.132,9.416c0,0-6.736,2.955-8.107,2.826c-0.333-0.03-5.104-2.579-5.104-2.579l-4.827,2.85l-4.981,2.159l-7.74-1.838
	l-2.317-2.416l-4.53-6.247l-6.495-4.109l-3.536-7.487l-8.856-7.168l-1.336-4.677l-5.347-3.007l-1.671-3.341l-0.501-10.858
	l4.512-0.167l4.008-1.67l0.335-5.679l3.341-3.007l0.335-10.358l2.004-8.019l2.672-1.336l2.675,2.339l1.001,3.675l3.675-2.005
	l1.003-3.341l-2.339-3.675v-5.012l2.004-2.673l4.679-7.016l2.672-3.007l4.344,1.002l4.679-3.341l6.348-7.016l4.678-8.019
	l0.669-11.694l1.001-10.357v-9.689l-2.338-6.348l2.005-3.007l2.651-2.673l7.216,40.978l9.57-1.552L1088.541,172.447z"/>
<path id="OH" sodipodi:nodetypes="cccccccccccccccccccccccccccccccccccccccccccccccccccccccccccccccc" fill="#232323" stroke="#FFFFFF" stroke-width="0.75" d="
	M1035.094,78.124l-12.594,8.378l-8.019,4.677l-7.016,7.685l-8.354,8.019l-6.683,1.67l-6.013,1.002l-11.361,5.347l-4.343,0.334
	l-7.016-6.349l-10.691,1.336l-5.347-3.006l-4.92-2.792l-10.112,1.454l-21.049,3.341l-23.162,4.515l2.673,30.237l3.675,28.4
	l5.347,48.445l1.169,9.986l8.52-0.268l5.013-1.67l6.951,3.106l4.279,9.022l10.622-0.036l3.909,4.379l3.639-0.135l5.246-2.772
	l5.177,0.767l11.203,0.998l3.57-4.408l4.849-2.672l4.278-1.408l1.336,5.681l3.676,2.004l7.184,4.845l4.511-0.167l2.755-1.017
	l0.381-5.708l3.276-3.007l0.206-9.905l2.114-8.493l2.687-1.242l2.73,2.373l1.112,3.507l3.553-2.145l0.908-3.019l-2.31-3.934
	l0.138-4.783l1.548-2.216l4.45-6.833l2.17-3.19l4.344,1.002l4.678-3.341l6.348-7.016l5.729-8.431l0.661-10.448l1.004-10.358
	l-0.365-10.967l-1.975-5.983l0.725-2.459l3.73-3.617l-4.731-18.699L1035.094,78.124z"/>
<path id="IN" fill="#0E0E0E" stroke="#FFFFFF" stroke-width="0.75" d="M795.857,298.525l0.135-5.905l1.004-9.356l4.676-6.015
	l3.676-8.019l5.347-8.687l-1.004-12.028l-3.675-5.679l-0.668-6.683l1.671-11.36l-1.003-14.366l-2.672-33.077l-2.673-31.741
	l-2.006-24.222l6.348,1.838l3.005,2.005l2.339-0.668l4.344-4.009l5.849-3.342l10.525-0.335l45.438-4.678l11.524-1.102l3.106,32.978
	l8.787,76.142l1.235,11.928l-0.767,4.678l2.537,3.71l0.199,2.837l-5.211,3.306l-7.314,3.206l-6.618,1.137l-1.237,10.06l-9.453,6.846
	l-5.78,8.288l0.668,4.912l-1.201,3.171h-6.874l-3.278-3.34l-5.152,2.609l-5.547,3.106l0.336,6.314l-2.467,0.533l-0.969-2.105
	l-4.477-3.107l-6.719,2.773l-3.205,6.213l-2.973-1.671l-3.006-3.306l-9.228,1.003l-11.559,2.004L795.857,298.525z"/>
<path id="IL" sodipodi:nodetypes="ccccccccccccccccccccccccccccccccccccccccccccccccccccccccccccccccccccccccccccccccccc" fill="#0D0D0D" stroke="#FFFFFF" stroke-width="0.75" d="
	M795.799,299.292l0.064-6.672l1.173-9.604l4.821-6.026l3.857-8.423l4.615-8.257l-0.767-10.855l-4.146-7.321l-0.197-6.917
	l1.435-10.891l-1.705-14.836l-2.204-32.607l-2.673-31.037l-1.907-24.056l-0.562-1.903l-1.672-5.346l-2.672-7.685l-3.34-3.675
	l-3.008-5.346L786.43,86.49l-94.649,5.37l0.472,4.903l4.725,1.417l1.892,2.364l0.944,3.779l8.033,7.087l1.417,4.726l-1.417,7.087
	l-3.78,7.561l-1.417,5.197l-4.725,3.78l-3.78,1.417l-10.869,2.836l-1.417,3.779l-1.416,4.252l1.416,2.836l3.781,3.307l-0.473,8.505
	l-3.78,3.308l-1.419,3.307v5.67l-3.78,0.945l-3.306,2.362l-0.473,2.835l0.473,4.253l-3.545,2.717l-2.127,5.788l0.946,7.56
	l4.726,15.12L688,236.15l11.341,7.561l-0.473,8.978l1.889,2.834l13.23,0.946l5.671,2.834l-1.418,7.561l-4.726,12.285l-1.417,6.615
	l4.726,8.032l13.229,10.869l9.45,1.419l4.252,10.395l4.253,6.613l-1.89,6.144l3.309,8.506l3.778,4.252l2.922-1.82l1.877-4.289
	l4.574-3.61l4.405-1.27l5.379,2.438l7.496,2.844l2.456-0.618l0.414-4.666l-2.66-4.985l0.628-4.912l3.8-2.783l6.247-1.676
	l2.605-0.948l-1.266-2.866l-1.637-4.866l2.961-2.026L795.799,299.292z"/>
<path id="CT" sodipodi:nodetypes="cccccccccccccccc" fill="#070707" stroke="#FFFFFF" stroke-width="0.75" d="M1321.84,48.228
	l-7.602-30.751l-9.752,1.902l-43.874,9.803l2.067,6.667l3.007,15.036l0.365,18.532l-2.521,4.495l3.97,3.994l8.828-8.072l7.349-6.683
	l4.01-4.343l1.672,1.337l5.68-3.007l10.69-2.339L1321.84,48.228z"/>
<path id="WI" sodipodi:nodetypes="ccccccccccccccccccccccccccccccccccccccccccccccccccccccccccccccccccccccccccccccccccccccccc" fill="#313131" stroke="#FFFFFF" stroke-width="0.75" d="
	M786.551,86.474l-0.139-6.525l-2.437-9.356l-1.336-12.696l-2.339-5.011l2.004-6.348l1.671-6.015l3.007-5.345l-1.338-7.017
	l-1.336-7.351l1.003-3.674l4.009-5.013l0.335-5.68l-1.671-2.673l1.336-5.346l-0.935-8.62l5.68-11.693l6.015-14.033l0.333-4.677
	l-0.669-2.005l-1.669,1.003l-8.687,13.03l-5.682,8.353l-4.008,3.675l-1.672,4.678l-4.04,1.67l-2.337,4.01l-3.008-0.668l-0.335-3.675
	l2.674-5.011l4.344-9.689l3.673-3.341l2.049-4.873l-5.292-3.93l-4.081-21.425l-7.332-2.774l-4.022-4.771l-25.067-5.625l-5.943-2.092
	l-16.977-4.48l-16.362-2.395l-7.782-10.603l-1.55,1.145l-2.477-0.334l-1.337-2.338l-2.757,0.612l-2.339,0.334l-3.676,2.005
	l-2.004-1.337l1.336-4.009l4.009-6.348l2.339-2.339l-4.008-3.006l-4.344,1.67l-6.015,4.009l-15.369,6.682l-6.015,1.337l-6.013-1.003
	l-2.03-1.814l-4.373,5.859l-0.473,5.67v17.482l-2.363,3.308l-10.866,8.032l-4.726,12.286l0.945,0.472l5.196,4.252l1.417,6.615
	l-3.78,6.615v8.033l0.947,13.702l6.142,6.143h7.088l3.78,6.615l7.086,0.946l8.033,11.812l14.648,8.505l4.251,5.67l1.891,15.356
	l1.417,6.851l4.725,3.308l0.473,2.834l-4.253,7.087l0.475,6.615l5.197,8.033l5.197,2.363l6.142,0.945l2.775,2.852L786.551,86.474z"
	/>
<path id="NC" sodipodi:nodetypes="cccccccccccccccccccccccccccccccccccccccccccccccccccccccccccscccccccccccccccccccccccccccccccc" fill="#212121" stroke="#FFFFFF" stroke-width="0.75" d="
	M1241.058,286.837l4.309,10.163l7.351,13.364l5.012,5.012l1.336,4.679l-5.012,0.333l1.672,1.336l-0.668,8.687l-5.347,2.675
	l-1.336,4.343l-2.673,6.015l-7.686,3.341l-5.012-0.668l-3.007-0.335l-3.341-2.673l0.669,2.673v2.006h4.008l1.671,2.672l-4.008,13.03
	h8.687l1.336,3.341l4.677-4.677l2.674-1.003l-4.01,7.351l-6.348,10.022h-2.672l-2.34-1.001l-5.68,1.336l-10.692,5.012
	l-13.363,11.026l-7.018,9.688l-4.009,13.365l-1.003,5.012l-9.688,1.003l-11.271,2.763l-20.557-16.953l-26.062-15.703l-6.013-1.671
	l-26.061,3.007l-8.84,1.551l-3.34-6.683l-6.141-4.374l-34.078,1.001l-15.035,1.671l-18.709,9.355l-12.697,5.347l-43.769,5.346
	l1.033-8.38l3.675-3.007l5.682-1.336l1.336-7.687l8.688-5.679l8.019-3.008l8.687-7.351l9.02-4.343l1.337-6.348l8.021-8.019
	l1.336-0.333c0,0,0,2.337,1.669,2.337c1.671,0,4.011,0.67,4.011,0.67l4.676-7.351l4.344-1.338l4.679,0.67l3.34-7.351l6.015-5.347
	l1.003-4.343l0.388-7.541l8.838-0.046l14.877-1.769l32.567-4.656l31.281-4.311l44.726-9.755l41.301-8.8l23.1-4.973L1241.058,286.837
	z M1249.883,355.468l5.347-5.179l6.516-5.347l3.173-1.336l0.335-4.176l-1.337-12.697l-3.007-4.844l-1.336-3.844l1.504-0.5
	l5.679,11.359l0.836,9.187l-0.335,7.018l-7.016,3.175l-5.847,5.012l-2.34,2.505L1249.883,355.468z"/>
<path id="DC" sodipodi:nodetypes="cccccc" fill="#D3D3D3" stroke="#FFFFFF" stroke-width="0.75" d="M1180.787,196.993l-3.841-3.771
	l-2.547-1.417l2.982-4.18l5.971,4.026L1180.787,196.993z"/>
<path id="MA" sodipodi:nodetypes="ccccccccccccccccccccccccccccccccccccccccccccccccccccccccccccccc" fill="#151515" stroke="#FFFFFF" stroke-width="0.75" d="
	M1374.654,36.635l4.488-1.417l0.947-3.543l2.125,0.236l2.127,4.725l-2.6,0.945l-8.032,0.237L1374.654,36.635z M1355.283,38.289
	l4.725-5.434h3.308l3.78,3.072l-4.961,2.126l-4.49,2.126L1355.283,38.289z M1283.363-7.155l36.471-9.591l4.678-1.336l3.956-5.779
	l7.722-3.438l5.973,9.121l-5.012,10.692l-0.67,3.006l4.01,5.347l2.34-1.671h3.675l4.677,5.347l8.019,12.362l7.351,1.002l4.679-2.005
	l3.675-3.675l-1.671-5.68l-4.343-3.341l-3.008,1.671l-2.004-2.673l1.001-1.002l4.343-0.334l3.676,1.67l4.011,5.012l2.004,6.014
	l0.668,5.012l-8.687,3.007l-8.019,4.009l-8.019,9.355l-4.009,3.007v-2.005l5.012-3.007l1.001-3.674l-1.67-6.349l-6.014,3.007
	l-1.672,3.006l1.004,4.678l-4.271,2.067l-5.677-9.356l-7.018-9.021l-4.279-3.746l-13.502,3.877l-10.523,2.172l-42.731,9.491
	l-1.379-9.854l1.336-21.883l8.865-1.838L1283.363-7.155z"/>
<path id="TN" sodipodi:nodetypes="ccccccccccccccccccccccccccccccsccccccccccccc" fill="#2A2A2A" stroke="#FFFFFF" stroke-width="0.75" d="
	M955.22,336.312L847.972,346.67l-32.571,3.675l-9.551,1.061l-7.994-0.057l-0.458,8.475l-16.917,0.545l-14.367,1.336l-16.721-0.256
	l-2.921,14.618l-3.508,11.327l-6.806,5.686l-2.787,9.054l-0.668,5.345l-8.352,4.678l3.007,7.351l-2.006,9.021l-2,1.633
	l223.534-21.51l0.833-8.174l3.742-3.08l5.857-1.55l1.389-7.682l8.471-5.591l8.363-3.088l8.44-7.379l9.17-4.186l1.075-6.34l8.4-8.234
	l1.139-0.236c0,0,0.064,2.337,1.735,2.337s4.011,0.735,4.011,0.735l4.676-7.416l4.279-1.338l4.702,0.611l3.304-7.302l6.107-5.464
	l0.872-4.008l0.638-7.67l-4.436-0.414l-5.377,4.192l-14.453,0.061l-37.944,4.933L955.22,336.312z"/>
<path id="AR" sodipodi:nodetypes="cccccccccccccccccccccccccccccccccccccccc" fill="#040404" stroke="#FFFFFF" stroke-width="0.75" d="
	M742.651,387.564l-8.227,1.481l-10.566-1.31l0.87-3.312l6.158-5.304l1.949-7.557l-3.778-6.142l-162.069,5.197l3.309,14.175v17.01
	l2.833,22.68l0.475,78.199l4.725,4.016l6.142-2.833l5.67,2.361l1.406,13.585l114.954-2.357l2.368-4.319l-0.592-7.336l-3.774-6.142
	l3.305-3.07l-3.305-5.191l1.415-5.187l2.828-11.585l5.205-4.263l-1.419-4.721l7.561-11.103l5.671-2.828l-0.236-3.088l-0.712-3.772
	l5.903-11.57l4.967-2.598l0.794-7.084l3.659-2.567l-6.497-0.999l-2.771-8.289l5.795-4.913l1.138-4.174l2.645-8.361L742.651,387.564z
	"/>
<path id="MO" sodipodi:nodetypes="cccccccccccccccccccccccccccccccccccccccccccccccccccccccccccc" fill="#191919" stroke="#FFFFFF" stroke-width="0.75" d="
	M669.521,191.35l-5.21-6.381l-2.361-4.725l-133.01,4.961l-4.725,0.236l2.6,5.198l-0.475,4.725l5.199,8.033l6.378,8.505l6.38,5.669
	l4.467,0.473l3.092,1.89v6.143l-3.778,3.308l-0.946,4.725l4.252,7.087l5.197,6.143l5.199,3.78l2.834,24.098l0.649,74.55l0.473,9.688
	l0.944,11.125l46.364-1.791l47.961-1.418l42.998-1.655l24.086-0.477l4.484,7.082l-1.414,6.834l-6.38,4.967l-1.183,3.799
	l11.114,0.944l8.051-1.419l3.549-11.353l1.346-12.104l4.336-5.282l5.366-3.071l0.104-6.306l2.102-4.002l-3.502-5.258l-2.751,2.034
	l-4.119-4.602l-2.654-9.837l1.655-5.203l-4.019-7.085l-3.782-9.457l-9.92-1.653l-14.402-11.569l-3.553-8.503l1.651-6.615
	l4.257-12.52l0.948-5.917l-4.028-2.132l-14.169-1.648l-2.123-3.539l-0.232-8.742l-11.341-7.091l-14.416-16.062l-4.725-15.12
	l-0.475-8.733L669.521,191.35z"/>
<path id="GA" sodipodi:nodetypes="ccccccccccccccccccccccccccccccccccccccccccccccccccccccccccccccccccccccc" fill="#0A0A0A" stroke="#FFFFFF" stroke-width="0.75" d="
	M904.821,413.396v4.511l0.335,4.344l1.336,7.016l7.016,16.373l5.012,20.38l3.007,12.695l3.343,10.022l3.007,14.369l4.344,13.029
	l5.345,7.016l1.003,7.016l4.008,1.672l0.335,4.343l-3.675,10.023l-1.003,6.683l-0.333,4.01l3.34,9.02l0.668,11.026l-1.669,5.012
	l1.336,1.671l3.008,1.671l0.422,6.65l4.615,6.923l4.65,4.469l16.372,0.333l22.361-1.336l44.461-2.673l11.254-1.395l9.46,0.059
	l0.335,6.013l5.347,1.671l0.668-9.02l-3.343-9.356l2.339-3.341l12.029,1.671l10.285,0.656l-1.603-13.018l4.679-20.714l3.007-8.688
	l-1.003-5.346l6.893-12.905l-1.056-2.793l-3.954,1.455l-5.346-2.673l-1.336-4.343l-2.673-7.351l-4.679-4.344l-5.346-1.336
	l-3.341-10.023l-6.045-13.092l-8.687-4.011l-4.343-4.009l-2.675-5.346l-4.344-4.011l-4.676-2.672l-4.679-6.015l-6.348-4.677
	l-9.354-3.675l-1.003-3.008l-5.012-6.015l-1.003-3.007l-7.016-10.271l-7.273,0.204l-7.761-4.87l-2.933-2.672l-0.668-3.676l1.8-4.008
	l4.603-2.295l-1.311-4.336L904.821,413.396z"/>
<path id="SC" sodipodi:nodetypes="cccccccccccccccccccccccccccccccccccccccccccccccccccccc" fill="#282828" stroke="#FFFFFF" stroke-width="0.75" d="
	M1096.307,522.135l-3.673,2.004l-5.345-2.674l-1.338-4.344l-2.672-7.351l-4.677-4.344l-5.347-1.336l-3.342-10.022l-5.68-12.362
	l-8.687-4.011l-4.344-4.008l-2.672-5.347l-4.344-4.008l-4.679-2.673l-4.676-6.015l-6.35-4.678l-9.355-3.676l-1.001-3.007
	l-5.011-6.013l-1.003-3.008l-7.016-10.69l-7.018,0.333l-8.353-5.012l-2.674-2.672l-0.668-3.676l1.671-4.01l4.679-2.004l-1.058-4.731
	l11.922-4.83l18.839-9.483l16.069-1.672l33.304-0.871l5.452,3.879l3.472,6.94l8.891-1.261l26.06-3.006l6.015,1.67l26.061,15.704
	l20.892,16.784l-11.204,11.282l-5.347,12.695l-1.001,13.03l-3.342,1.671l-2.34,5.679l-5.011,1.337l-4.344,7.351l-5.68,5.68
	l-4.676,7.018l-3.343,1.669l-7.351,7.018l-6.015,0.333l2.007,6.683l-10.358,11.36L1096.307,522.135z"/>
<path id="KY" sodipodi:nodetypes="ccccccccccccccccccccccccccccccccccccccccccccccccccccccccccccccccccccccccccccccccccccccc" fill="#111111" stroke="#FFFFFF" stroke-width="0.75" d="
	M1015.81,288.812l-4.739,4.963l-7.395,8.255l-10.179,11.294l-2.513,3.547l-0.129,4.343l-9.053,4.473l-11.693,7.018l-14.945,3.718
	l-107.198,10.124l-32.571,3.675l-9.551,1.06l-7.994-0.056l-0.469,8.721l-16.905,0.299l-14.366,1.336l-16.51-0.123l2.497-2.729
	l5.167-3.186l0.472-6.613l1.89-3.78l-3.32-5.248l1.657-3.941l4.679-3.676l4.343-1.336l5.68,2.673l7.351,2.674l2.339-0.668
	l0.333-4.679l-2.672-5.012l0.668-4.676l4.009-3.008l5.347-1.338l3.34-1.336l-1.669-3.676l-1.339-4.008l3.115-2.059
	c0.008-0.077,2.591-7.278,2.559-7.561l6.312-3.056l10.993-2.004l9.288-1.002l2.879,3.363l3.158,1.8l3.288-6.424l6.586-2.651
	l4.557,3.067l0.85,2.065l2.426-0.545l-0.335-6.103l6.471-3.615l4.44-2.219l3.161,3.433l6.855-0.092l1.216-3.248l-0.76-4.677
	l5.375-8.264l9.872-7.105l1.459-9.994l6.045-0.942l7.835-3.402l5.05-3.53l-0.41-3.234l-2.361-3.007l1.171-6.189l8.648-0.243
	l4.753-1.541l6.919,2.953l4.244,9.022l10.608,0.022l4.238,4.563l3.338-0.305l5.377-2.642l10.824,1.185l5.322,0.45l3.487-4.25
	l5.411-2.948l3.89-1.461l1.336,5.863l4.223,2.187l5.461,4.304l0.244,11.725l1.67,3.25l5.352,3.216l1.595,4.742l8.599,7.104
	l3.731,7.489L1015.81,288.812z"/>
<path id="AL" sodipodi:nodetypes="cccccccccccccccccccccccccccccccccccccccccccccccc" fill="#010101" stroke="#FFFFFF" stroke-width="0.75" d="
	M820.115,630.124l-3.082-29.601l-5.68-38.756l0.335-29.067l1.67-64.149l-0.333-34.414l0.341-13.267l91.938-7.479l-0.305,4.511
	l0.333,4.344l1.336,7.016l7.018,16.37l5.012,20.381l3.007,12.697l3.341,10.022l3.007,14.368l4.344,13.03l5.346,7.016l1.001,7.016
	l4.011,1.672l0.333,4.343l-3.675,10.022l-1.001,6.683l-0.336,4.011l3.343,9.02l0.668,11.026l-1.671,5.012l1.336,1.671l3.007,1.669
	l0.679,5.972l-11.569-0.73l-14.033,1.336l-52.788,6.013l-21.518,2.909l-0.458,5.945l3.676,3.676l5.344,4.01l1.201,16.4
	l-11.454,5.316l-5.679-0.668l5.679-4.008v-2.005l-6.348-12.361l-4.678-1.339l-3.008,9.022l-2.672,5.679l-1.336-0.332H820.115z"/>
<path id="LA" sodipodi:nodetypes="ccccccccccccccccccccccccccccccccccccccccccccscccccccccccccccccccccccccccccsccccccccccccccccccccccccccccc" fill="#121212" stroke="#FFFFFF" stroke-width="0.75" d="
	M771.878,627.53l-6.787-6.544l2.087-11.366l-1.367-1.848l-19.141,2.081l-51.728,0.949l-1.415-4.949l1.888-17.477l6.852-12.287
	l10.398-17.963l-1.185-4.957l2.596-1.407l0.948-4.034l-4.725-4.248l-0.23-4.015l-3.784-8.981l-0.303-13.101l-114.651,1.909
	l0.061,19.785l1.417,19.374l1.417,8.032l5.199,8.505l1.889,10.395l8.978,11.341l0.473,6.614l1.419,1.419l-1.419,17.482
	l-6.142,10.394l3.306,4.253l-1.417,5.197l-1.417,15.121l-2.835,6.614l0.254,7.476l9.686-3.143l25.035,0.428l21.382,7.351
	l13.365,2.339l7.684-3.007l6.683,2.339l6.683,2.005l1.671-4.344l-6.683-2.339l-5.347,1.003l-5.679-3.343
	c0,0,0.333-2.672,1.671-3.007c1.336-0.333,6.348-2.004,6.348-2.004l3.675,3.007l3.676-2.004l6.683,1.336l3.005,5.012l0.67,4.678
	l9.355,0.668l3.675,3.676l-1.671,3.34l-2.672,1.672l3.34,3.34l17.373,7.351l7.352-2.672l2.004-5.012l5.347-1.338l3.675-3.006
	l2.672,2.005l1.672,6.015l-4.679,1.669l1.336,1.336l7.018-2.672l4.677-7.016l1.671-1.003l-4.343-0.669l1.671-3.34l-0.335-3.007
	l4.343-1.004l2.34-2.672l1.336,1.669c0,0-0.333,6.35,1.336,6.35c1.671,0,8.687,1.336,8.687,1.336l8.354,4.009l2.005,3.007h6.015
	l2.339,2.007l4.677-6.35v-3.008h-2.673l-7.018-5.68l-12.026-1.671l-6.684-4.676l2.34-5.68l4.679,0.668l0.333-1.336l-3.676-2.007
	V662.9h6.683l3.675-6.348l-2.672-4.01l-0.668-5.68l-3.007,0.333l-4.011,4.344l-1.336,5.346l-6.348-1.336l-2.006-3.675l3.675-4.011
	l3.934-7.12l-2.191-4.985L771.878,627.53z"/>
<path id="MS" sodipodi:nodetypes="ccccccccccccccccccccccccccccccccccccccccccccccccccc" fill="#181818" stroke="#FFFFFF" stroke-width="0.75" d="
	M820.636,627.909l-0.524,2.596H809.42l-3.007-1.671l-4.344-0.668l-14.033,4.01l-3.675-1.671l-5.347,8.687l-2.278,1.608l-2.321-5.143
	l-2.363-8.032l-7.089-6.614l2.364-11.46l-1.417-1.889l-3.78,0.472l-16.364,1.805l-50.732,0.773l-1.59-4.6l1.804-17.313l6.442-11.725
	l10.802-18.899l-0.92-5.027l2.558-1.356l0.899-3.968l-4.789-4.297l-0.238-4.426l-3.794-8.518l-0.227-12.323l2.745-5.127l-0.462-7.06
	l-3.657-6.37l3.154-3.063l-3.245-5.167l0.944-3.415l3.262-13.488l5.137-4.208l-1.326-4.893l7.561-10.957l5.853-2.804l-0.458-3.463
	l-0.595-3.474l5.943-11.507l4.848-2.545l0.315-1.847l77.178-8.021l0.383,12.985l0.333,34.414l-1.669,64.147l-0.335,29.067
	l5.68,38.758L820.636,627.909z"/>
<path id="IA" sodipodi:nodetypes="ccccccccccccccccccccccccccccccccccccccccccccccccccccccc" fill="#0F0F0F" stroke="#FFFFFF" stroke-width="0.75" d="
	M691.739,91.054l0.547,5.758l4.596,1.193l1.972,2.532l1.034,3.834l7.839,6.942l1.417,4.942l-1.395,7.077l-3.271,6.68l-1.65,5.667
	l-4.491,3.311l-3.546,1.183l-11.53,3.845l-2.876,7.954l1.506,2.836l3.804,3.477l-0.585,8.343l-3.643,3.178l-1.595,3.396l0.263,5.737
	l-3.897,0.945l-3.36,2.284l-0.576,2.795l0.576,4.371l-3.205,2.307l-5.106-6.476l-2.61-5.063l-135.857,5.197l-1.896,0.342
	l-4.243-9.333l-0.472-13.702l-3.309-8.505l-1.416-10.868l-4.726-7.561l-1.892-9.922l-5.669-15.592l-2.361-11.104l-2.835-4.489
	l-3.309-5.669l4.039-10.011l2.836-11.813l-5.672-4.252l-0.945-5.67l1.892-5.197h3.542l170.825-2.624l1.724,8.646l4.656,3.227
	l0.528,2.941l-4.194,7.004l0.394,6.625l5.197,7.849l5.224,2.674l6.363,1.04L691.739,91.054z"/>
<path id="MN" sodipodi:nodetypes="ccccccccccccccccccccccccccccccccccccccccccccccccccccccccccccccccccccccccccccccccccccccccccc" fill="#171717" stroke="#FFFFFF" stroke-width="0.75" d="
	M497.563-55.189l-0.946-17.483l-3.781-15.12l-3.777-27.878l-0.947-20.317l-3.78-7.087l-3.306-10.395v-21.263l1.417-8.033
	l-3.764-11.267l62.277,0.073l0.668-17.04l1.336-0.334l4.678,1.003l4.009,1.67l1.671,11.36l3.008,12.696l3.34,3.342h10.023
	l0.668,3.006l13.032,0.668v4.344h10.022l0.668-2.672l2.339-2.339l4.677-1.336l2.674,2.004h6.013l8.019,5.347l11.026,5.012
	l5.012,1.002l1.003-2.004l3.007-1.003l1.001,6.014l5.347,2.672l1.003-1.002l2.673,0.334v4.343l5.344,2.005h6.35l3.341-1.67
	l6.683-6.683l5.347-1.002l1.669,3.674l1.003,2.673h2.004l2.004-1.67l18.377-0.668l3.676,6.347h1.336l1.476-2.24l9.175-0.767
	l-1.264,4.712l-8.142,3.796l-19.107,8.393l-9.869,4.147l-6.348,5.347l-5.012,7.351l-4.676,8.018l-3.678,1.671l-9.354,10.357
	l-2.673,0.334l-8.944,5.698l-5.091,6.624l-0.472,6.596l0.195,16.624l-2.844,3.49l-10.503,7.771l-4.608,12.364l5.935,4.616
	l1.406,6.669L616.77-25.6l0.354,7.745l0.763,13.91l6.257,6.204h6.881l3.909,6.475l6.983,1.041l7.977,11.721l14.646,8.508l4.43,5.942
	l1.387,13.309l-167.842,2.366l-0.699-73.734l-0.945-6.143l-8.505-7.087l-2.361-3.78v-3.308l4.253-3.307l2.833-2.836L497.563-55.189z
	"/>
<path id="OK" sodipodi:nodetypes="ccccccccccccccccccccccccccccccccccccccccccccccccccccccccccccccc" fill="#242424" stroke="#FFFFFF" stroke-width="0.75" d="
	M301.44,341.618l-34.482-2.632l-1.819,22.637l42.296,2.39l66.25,2.695l-4.826,50.467l-0.944,36.854l0.472,3.308l8.978,7.561
	l4.252,2.361l1.419-0.472l1.417-4.253l2.833,3.78h4.254v-2.834l5.669,2.834l-0.944,8.033l8.505,0.472l5.197,2.363l8.505,1.417
	l5.197,3.78l4.725-4.252l7.088,1.416l5.197,7.089h1.889v4.725l4.725,1.417l4.727-4.725l3.778,1.419H461l1.889,5.196l13.022,4.298
	l2.835-1.419l3.781-8.506h2.361l2.363,4.253l8.505,1.419l7.561,2.834l6.142,1.891l3.78-1.891l1.417-5.197h8.978l4.253,1.891
	l5.671-4.252h2.361l1.419,3.306h8.505l3.306-4.253l3.78,0.947l4.253,5.197l6.616,3.78l6.614,1.889l4.012,2.313l-0.803-76.918
	l-2.836-22.682l-0.333-18.336l-2.976-13.513l-1.608-14.839l-0.141-7.885l-25.084,0.658l-95.917-0.945l-93.082-4.252L301.44,341.618z
	"/>
<path id="TX" sodipodi:nodetypes="ccccccccccccccccccccccccccccccccccccccccccccccccccccccccccccccccccccccccccccccccccccccccccccccccccccccccccccccccccccccccccccccccccccccccccccccccccccccccccccccccccccccccccccccccccccccccccc" fill="#2B2B2B" stroke="#FFFFFF" stroke-width="0.75" d="
	M262.423,361.772l46.896,2.245l64.26,2.363l-4.826,48.478l-0.613,37.518l0.141,4.303l8.978,7.892l4.105,2.991l2.448-1.158
	l0.771-3.756l2.357,3.728l4.363,0.091l-0.004-2.991l3.451,2l2.354,0.844l-0.743,8.2l8.449,0.194l6.047,2.475l8.172,1.085
	l4.923,4.298l4.39-4.291l7.698,1.27l4.589,6.666l2.222,0.662l-0.331,4.062l4.575,1.638l4.815-4.247l4.408,1.271l4.608,0.073
	l1.927,5.033l13.079,4.369l3.292-1.584l3.08-8.635h0.705l1.873,0.168l2.539,4.277l8.123,1.374l6.896,2.321l7.078,2.47l3.805-2.014
	l1.475-5.197l9.204,0.091l3.737,1.924l5.787-4.354l2.28,0.09l1.758,3.318h8.381l3.14-4.191l3.859,0.842l4.022,4.967l7.276,4.224
	l5.907,1.674l3.128,1.652l5.057,4.128l6.288-2.743l5.562,2.354l1.167,12.618l-0.083,20.052l1.417,19.705l1.451,7.451l5.53,9.135
	l1.854,10.231l8.715,11.445l0.404,6.501l1.544,1.623l-1.51,17.32l-5.936,10.346l3.168,4.45l-1.302,4.832l-1.384,15.303l-3.11,6.898
	l0.609,7.24l-11.706,3.275l-20.381,9.354l-2.006,4.009l-5.345,4.011l-4.344,3.007l-2.674,1.669l-11.694,11.026l-5.68,4.343
	l-11.025,6.683l-11.692,5.012l-13.029,7.018l-3.676,3.005l-12.029,7.351l-7.016,1.337l-8.019,11.36l-8.354,0.668l-2.004,4.009
	l4.678,4.011l-3.007,11.358l-2.674,9.354l-2.337,8.02l-1.671,9.354l1.671,5.014l3.675,14.366l2.004,12.695l3.675,5.681l-2.006,3.006
	l-6.348,4.01l-11.694-8.019l-11.359-2.339l-2.672,1.003l-6.683-1.336l-8.687-6.35l-10.693-2.337l-15.703-7.018l-4.343-8.02
	l-2.672-13.362l-6.683-4.011l-1.336-4.677l1.336-1.338l0.668-7.016l-2.672-1.336l-1.336-2.004l2.672-9.022l-3.342-4.676
	l-6.681-2.675l-7.018-9.02l-7.351-13.7l-8.687-5.345l0.335-4.01l-11.026-25.393l-1.67-8.687l-3.675-4.009l-0.334-3.007
	l-12.362-11.026l-5.347-6.348v-2.339l-5.346-4.343l-14.032-2.34l-15.369-1.336l-6.348-4.679l-9.355,3.676l-7.35,3.007l-4.679,6.683
	l-2.004,7.686l-9.021,12.695l-5.011,5.012l-5.347-2.004l-3.675-2.34l-4.009-1.336l-8.019-4.679v-1.336l-3.674-4.008l-10.692-4.344
	l-15.37-16.037l-4.677-9.69v-16.705l-6.682-13.363l-1.003-5.682l-3.34-2.004l-2.339-4.344l-10.358-4.343l-2.672-3.341
	l-14.701-16.372l-2.672-6.683l-9.69-4.677l-3.007-9.021l-5.346-6.015l-4.009-1.001l-1.341-9.668l16.537,1.417l60.008,5.672
	l60.008,3.306l4.616-40.223l8.033-114.816l3.308-38.746l2.835,0.059 M469.569,836.367l-1.168-14.701l-5.68-14.869l-1.17-14.533
	l3.175-17.039l6.85-14.2l7.183-11.191l6.515-7.351l1.336,0.5l-9.855,13.698l-9.021,13.533l-4.176,13.698l-0.668,10.69l1.837,12.697
	l5.347,14.866l1.001,10.693l0.335,3.005L469.569,836.367z"/>
<path id="NM" sodipodi:nodetypes="ccccccccccccccc" fill="#1F1F1F" stroke="#FFFFFF" stroke-width="0.75" d="M110.906,554.888
	l-1.603-9.813l17.865,1.086l62.357,6.09l56.356,3.491l4.578-38.662l7.973-115.481l3.59-40.073l3.249,0.267l1.707-23.071
	L52.027,316.738L15.865,565.646l31.953,4.11l2.673-20.716L110.906,554.888z"/>
<path id="KS" sodipodi:nodetypes="ccccccccccccccccccccc" fill="#101010" stroke="#FFFFFF" stroke-width="0.75" d="M565.026,348.973
	l-26.078,0.424l-95.255-0.944l-92.087-4.253l-50.904-2.6l8.048-133.501l45.64,1.396l83.267,1.739l91.56,2.041h10.532l4.515,4.469
	l4.17-0.043l3.389,2.092l-0.129,6.219l-3.778,3.566l-0.688,4.613l3.811,7.031l6.102,6.604l4.81,3.336l2.688,23.231L565.026,348.973z
	"/>
<path id="NE" sodipodi:nodetypes="ccccccccccccccccccccccccccccccccccccc" fill="#1B1B1B" stroke="#FFFFFF" stroke-width="0.75" d="
	M520.007,176.03l6.677,14.508l-0.265,4.758l7.148,11.354l5.619,6.515h-10.435l-89.867-1.94l-84.296-1.84l-45.99-1.621l2.217-44.079
	l-66.793-6.036l8.978-90.957l32.13,2.126l41.58,2.362l36.855,2.362l49.14,2.362l22.209-0.944l4.25,4.725l9.924,6.143l2.361,1.891
	l8.978-2.835l8.033-0.945l5.671-0.473l3.78,2.835l8.384,3.308l6.145,3.307l0.943,3.308l1.89,4.252h3.78l1.648,0.095l1.85,9.677
	l6.034,17.5l1.185,7.764l5.216,7.801l1.177,10.569l3.322,8.764L520.007,176.03z"/>
<path id="SD" sodipodi:nodetypes="ccccccccccccccccccccccccccccccccccccc" fill="#292929" stroke="#FFFFFF" stroke-width="0.75" d="
	M500.062,100.23l-0.1-1.2l-5.984-10.015l3.846-9.738l3.084-12.167l-5.748-4.298l-0.798-5.669l1.639-5.28l6.59,0.031l-0.255-10.346
	l-0.689-62.362l-1.275-7.787l-8.416-6.884l-2.033-3.465l-0.129-3.325l4.18-3.161l3.167-3.443l0.507-5.491l-120.402-3.307
	l-113.256-7.128L252.982,66.828l30.154,1.868l41.232,2.492l36.669,1.918l49.142,2.694l24.764-0.878l4.063,4.641l10.737,6.724
	l1.579,1.494l9.385-3.003l13.519-1.271l3.461,2.762l8.691,3.298l6.087,3.381l0.824,3.067l2.148,4.631L500.062,100.23z"/>
<path id="ND" sodipodi:nodetypes="ccccccccccccccccc" fill="#222222" stroke="#FFFFFF" stroke-width="0.75" d="M497.703-54.994
	l-1.271-17.43l-3.467-14.086l-3.908-26.918l-0.945-22.707l-3.596-6.36l-3.629-10.735l0.064-21.585l1.287-7.904l-3.791-11.3
	l-59.196-1.166l-38.422-1.336l-54.794-2.673l-47.424-4.41L264.158-64.769l113.53,6.911L497.703-54.994z"/>
<path id="WY" sodipodi:nodetypes="ccccc" fill="#323232" stroke="#FFFFFF" stroke-width="0.75" d="M260.174-25.321L39.566-53.133
	L10.459,129.686l234.088,28.078L260.174-25.321z"/>
<path id="MT" sodipodi:nodetypes="ccccccccccccccccccccccccccccccccccccccccccccccc" fill="#1A1A1A" stroke="#FFFFFF" stroke-width="0.75" d="
	M278.43-203.694l-63.396-5.804l-60.475-7.35L94.086-225.2l-66.822-11.026l-38.088-7.017l-67.631-14.328l-9.258,44.12l7.088,15.592
	l-2.836,9.45l3.78,9.451l6.615,2.834l9.55,22.258l5.569,6.564l0.946,2.363l7.087,2.363l0.944,4.252l-14.647,36.382v5.198
	l5.197,6.615h1.89l9.923-6.143l1.417-2.362l3.308,1.418l-0.473,10.867l5.67,25.988l6.143,5.197l1.89,1.418l3.78,4.725l-0.946,7.087
	l1.418,7.088l2.362,1.889l4.725-4.725h5.67l6.615,3.308l5.197-1.89h8.505l7.561,3.307l5.669-0.945l0.946-6.143l6.143-1.418
	l2.834,2.836l0.945,6.615l2.948,1.725l3.899-22.806l220.615,27.754L278.43-203.694z"/>
<path id="CO" sodipodi:nodetypes="ccccc" fill="#060606" stroke="#FFFFFF" stroke-width="0.75" d="M300.797,341.915l10.134-178.412
	L76.587,137.372L51.345,319.118L300.797,341.915z"/>
<path id="ID" sodipodi:nodetypes="ccccccccccccccccccccccccccccccccccccccccccccccccccccccccccc" fill="#0C0C0C" stroke="#FFFFFF" stroke-width="0.75" d="
	M-177.762,43.311l18.126-72.792l2.836-8.741l5.197-12.286l-2.599-4.725l-5.198,0.236l-1.653-2.126l0.944-2.362l0.708-6.379
	l9.214-11.34l3.779-0.946l2.364-2.362l1.181-6.615l1.89-1.417l8.033-12.049l8.032-8.978l0.473-7.796l-7.088-5.433l-3.173-9.096
	l28.158-130.911l27.938,5.224l-9.11,44.194l7.358,15.47l-3.268,9.632l4.071,9.593l6.486,2.594l7.927,19.751l7.26,9.17l1.048,2.362
	l6.905,2.363l0.763,4.333l-14.407,35.912l-0.341,5.304l5.438,6.864l1.871-0.101l10.15-6.253l1.4-2.264l3.229,1.362l-0.575,11.064
	l5.661,26.005l8.098,6.568l3.474,4.476l-1.481,8.439l2.204,5.803l2.194,2.255l5.125-4.86l5.886,0.101l6.033,2.76l5.746-1.41
	l7.841-0.331l8.224,3.307l5.67-0.613l1.026-6.277l6.061-1.581l2.605,3.133l0.911,6.086l2.943,2.508L18.493,80.935
	C18.493,80.935-163.309,46.419-177.762,43.311z"/>
<path id="UT" sodipodi:nodetypes="cccccccccc" fill="#2C2C2C" stroke="#FFFFFF" stroke-width="0.75" d="M51.686,319.472
	l-173.087-24.539L-78.852,62.34L17.83,80.414l-3.068,21.97l-4.777,27.225l16.136,1.918l33.908,3.73l16.97,1.769L51.686,319.472z"/>
<path id="AZ" sodipodi:nodetypes="cccccccccccccccccccccccccccccccccccccccccccccc" fill="#030303" stroke="#FFFFFF" stroke-width="0.75" d="
	M-185.136,469.358l-5.429,4.46l-0.668,3.008l1.002,2.004l39.091,22.052l25.058,15.702l30.404,17.709l34.747,20.716l25.392,5.012
	l51.567,5.59l35.664-246.205l-173.06-24.63l-6.391,33.922l-3.32,0.03l-3.543,5.433l-5.198-0.235l-2.599-5.67l-5.669-0.708
	l-1.89-2.364h-1.89l-1.89,1.184l-4.016,2.125l-0.236,14.412l-0.472,3.543l-1.182,25.987l-3.07,4.488l-1.182,6.853l5.67,10.158
	l2.599,12.049l1.654,2.127l2.126,1.182l-0.236,4.725l-3.308,2.836l-7.087,3.542l-4.016,4.017l-3.071,7.561l-1.182,10.157
	l-5.906,5.672l-4.253,1.417l0.281,1.715l-0.945,3.545l0.945,1.652l7.561,1.181l-1.182,5.672l-3.071,4.488L-185.136,469.358z"/>
<path id="NV" sodipodi:nodetypes="cccccccccccccccccc" fill="#1C1C1C" stroke="#FFFFFF" stroke-width="0.75" d="M-78.737,62.101
	l-48.854,266.243l-3.788,0.721l-3.25,4.973l-4.903,0.022l-3.042-5.67l-5.412-0.782l-1.593-2.289l-2.145-0.111l-5.742,3.399
	l-0.641,14.022l-0.749,11.94l-0.721,17.759l-2.991,4.317l-5.04-2.22l-142.77-215.355l39.246-139.68L-78.737,62.101z"/>
<path id="OR" sodipodi:nodetypes="ccccccccccccccccccccccccccccccccccccccccccccccccccc" fill="#252525" stroke="#FFFFFF" stroke-width="0.75" d="
	M-177.26,41.343l18.29-71.926l2.173-8.741l4.865-11.622l-1.271-2.404l-5.198-0.096l-2.648-3.452l0.944-3.026l1.041-6.71l9.214-11.34
	l3.78-2.271l2.362-2.363l3.072-7.369l8.364-11.717l7.369-7.982l0.473-7.133l-6.756-5.103l-3.687-9.595l-26.172-7.466l-31.185-7.323
	l-31.894,0.236l-0.946-2.835l-11.34,4.252l-9.213-1.182l-4.961-3.307l-2.6,1.417l-9.686-0.472l-3.544-2.835l-10.868-4.252
	l-1.654,0.236l-8.978-3.071l-4.016,3.779l-12.758-0.708l-12.284-8.505l1.417-1.654l0.473-16.064l-4.726-8.033l-8.504-1.182
	l-1.418-5.197l-4.865-0.964l-11.983,4.255l-4.678,13.364l-6.683,20.715l-6.683,13.364l-10.356,29.067l-13.364,28.065l-16.706,26.06
	l-4.009,6.015l-1.671,17.708l0.798,24.966L-177.26,41.343z"/>
<path id="WA" sodipodi:nodetypes="cccccccccccccccccccccccccccccccccccccccccccccccccccccccccccccccccccccccccccccccccccccscccccc" fill="#2F2F2F" stroke="#FFFFFF" stroke-width="0.75" d="
	M-273.67-305.703l9.021,3.007l20.047,5.679l17.707,4.01l41.43,11.694l47.444,11.694l31.462,6.628l-28.174,131.415l-25.721-7.286
	l-32.05-7.38l-31.476,0.069l-0.941-2.779l-11.572,4.504l-9.497-1.522l-4.438-3.274l-2.714,1.36l-9.787-0.29l-3.511-2.79
	l-10.876-4.366l-1.52,0.303l-9.071-3.15l-3.913,3.756l-12.951-0.616l-12.246-8.527l1.609-1.928l0.25-15.867l-4.716-7.936
	l-8.505-1.254l-1.4-5.189l-4.703-0.944l-7.347,2.543l-4.679-6.653l0.669-6.014l5.679-0.668l3.341-8.353l-5.346-2.339l0.335-7.685
	l9.021-1.336l-5.68-5.68l-3.006-14.701l1.336-6.013v-16.373l-3.675-6.682l4.678-19.378l4.343,1.003l5.011,6.014l5.681,5.345
	l6.682,4.01l9.356,4.343l6.347,1.337l6.015,3.006l7.016,2.005l4.677-0.334v-5.012l2.673-2.338l4.343-2.673l0.668,2.339l0.669,3.675
	l-4.679,1.002l-0.668,4.343l3.675,3.007l2.339,5.011l1.336,4.009l3.007-0.334l0.334-2.673l-2.005-2.672l-1.002-6.682l1.67-3.675
	l-1.336-3.007v-4.677l3.675-7.351l-2.339-5.345l-5.012-10.023l0.668-1.671L-273.67-305.703z M-293.214-293.346l4.176-0.334
	l1.002,2.84l3.175-3.341h4.844l1.671,3.174l-3.174,3.509l1.336,1.67l-1.503,4.177l-2.84,0.835c0,0-1.837,0.167-1.837-0.5
	c0-0.668,3.007-5.346,3.007-5.346l-3.509-1.169l-0.668,3.006l-1.503,1.337l-3.174-4.677L-293.214-293.346z"/>
<path id="CA" sodipodi:nodetypes="ccccccccccccccccccccccccccccccccccccccccccccccccccccccccccccccccccccccccccccccccccccccccccccccccccccccccccccccccccccccccccccccccscc" fill="#050505" stroke="#FFFFFF" stroke-width="0.75" d="
	M-185.584,468.468l8.143-1.009l3.072-4.157l1.125-6.08l-7.339-1.219l-1.062-1.381l0.987-4.199l-0.33-1.22l3.974-1.281l6.288-5.854
	l1.202-10.323l2.852-7.031l4.017-4.477l7.273-3.286l3.419-3.318l0.142-4.357l-2.054-1.199l-2.114-2.216l-2.388-12.088l-5.549-9.982
	l1.169-7.243l-5.001-2.128l-142.731-215.31l39.065-139.714l-138.636-32.443l-3.114,9.781l-0.334,15.37l-10.692,24.39l-6.348,5.345
	l-0.668,2.339l-3.675,1.67l-3.006,8.687l-1.671,6.683l5.681,8.687l3.34,8.687l2.339,7.351l-0.668,13.364l-3.675,6.347l-1.336,12.028
	l-2.005,7.685l3.675,8.019l5.68,9.355l4.678,10.024l2.672,8.353l-0.668,6.683l-0.668,1.002v4.343l11.694,13.03l-1.003,5.012
	l-1.336,4.677l-1.336,4.009l0.334,17.04l4.343,7.685l4.009,5.346l5.68,1.003l2.005,5.679l-2.339,7.351l-4.344,3.341h-2.338
	l-1.671,8.019l1.002,6.014l6.683,9.021l3.341,11.026l3.008,9.689l2.672,6.348l7.017,12.029l3.007,5.344l1.002,6.015l3.341,2.004
	v5.014l-1.671,4.009l-3.675,14.701l-1.002,4.009l5.012,5.681l8.687,1.001l9.356,3.676l8.019,4.344h6.014l6.015,6.348l5.345,10.024
	l2.338,4.677l8.019,4.343l10.024,1.671l3.006,4.344l1.337,6.683l-3.007,1.336l0.668,2.005l6.683,1.671l5.68,0.333l6.531-3.486
	l8.019,8.688l1.67,4.678l5.345,8.688l0.668,6.68v19.38l1.003,3.676l20.715,3.007l40.761,5.68L-185.584,468.468z M-367.736,378.117
	l2.674,3.175l-0.334,2.672l-6.682-0.167l-1.17-2.505l-1.336-3.008L-367.736,378.117z M-363.727,378.117l2.506-1.336l7.351,4.343
	l6.349,2.505l-1.838,1.338l-9.356-0.502l-3.34-3.341L-363.727,378.117z M-320.96,419.046l3.675,4.844l1.67,2.005l3.173,1.17
	l1.17-3.007l-2.004-3.676l-5.513-4.176l-2.172,0.333V419.046z M-323.967,436.92l3.675,6.516l2.506,4.01l-3.007,0.501l-2.672-2.505
	c0,0-1.503-3.007-1.503-3.843s0-4.511,0-4.511L-323.967,436.92z"/>
</svg>
